<svg width="512" height="512" viewBox="0 0 512 512" fill="none" xmlns="http://www.w3.org/2000/svg">
<rect width="512" height="512" rx="20" fill="#4F46E5"/>
<path d="M298.5 281C303.833 287.667 310.5 296.5 318.5 307.5C326.833 318.167 335.333 330.167 344 343.5C352.667 356.5 361.167 370.167 369.5 384.5C378.167 398.833 385.5 412.667 391.5 426H338.5C331.833 413.333 324.5 400.5 316.5 387.5C308.833 374.5 301 362.167 293 350.5C285 338.5 277 327.333 269 317C261.333 306.667 254.333 297.667 248 290C243.667 290.333 239.167 290.5 234.5 290.5C230.167 290.5 225.667 290.5 221 290.5H177.5V426H129V84.5C142.667 81.1667 157.833 79 174.5 78C191.5 76.6666 207 76 221 76C269.667 76 306.667 85.1666 332 103.5C357.667 121.833 370.5 149.167 370.5 185.5C370.5 208.5 364.333 228.167 352 244.5C340 260.833 322.167 273 298.5 281ZM225 118.5C204.333 118.5 188.5 119 177.5 120V250.5H212C228.667 250.5 243.667 249.667 257 248C270.333 246.333 281.5 243.167 290.5 238.5C299.833 233.833 307 227.333 312 219C317 210.333 319.5 199 319.5 185C319.5 172 317 161.167 312 152.5C307 143.833 300.167 137 291.5 132C283.167 127 273.167 123.5 261.5 121.5C250.167 119.5 238 118.5 225 118.5Z" fill="white"/>
</svg>
